Coordinates
version=1
nRows=13
nColumns=40
inDegrees=yes

Units are S.I. units (second, meters, Newtons, ...)
If the header above contains a line with 'inDegrees', this indicates whether rotational values are in degrees (yes) or radians (no).

endheader
time	pelvis_tilt	pelvis_list	pelvis_rotation	pelvis_tx	pelvis_ty	pelvis_tz	hip_flexion_r	hip_adduction_r	hip_rotation_r	knee_angle_r	knee_angle_r_beta	ankle_angle_r	subtalar_angle_r	mtp_angle_r	hip_flexion_l	hip_adduction_l	hip_rotation_l	knee_angle_l	knee_angle_l_beta	ankle_angle_l	subtalar_angle_l	mtp_angle_l	lumbar_extension	lumbar_bending	lumbar_rotation	arm_flex_r	arm_add_r	arm_rot_r	elbow_flex_r	pro_sup_r	wrist_flex_r	wrist_dev_r	arm_flex_l	arm_add_l	arm_rot_l	elbow_flex_l	pro_sup_l	wrist_flex_l	wrist_dev_l
      0.16000000	     -4.91880603	      7.86610034	    -89.91450589	      0.19009270	      0.88760365	     -0.89187686	    -13.58872490	      7.46068727	      1.81478112	     -9.41796691	     -0.16437453	     12.92865003	      0.00000000	      0.00000000	     41.80510888	     -7.07572153	      0.63925352	     15.65188576	      0.27317694	     -2.17854301	      0.00000000	      0.00000000	     -3.40941902	      5.69067536	     -2.53852763	      0.00000000	      0.00000000	      0.00000000	      0.00000000	      0.00000000	      0.00000000	      0.00000000	      0.00000000	      0.00000000	      0.00000000	      0.00000000	      0.00000000	      0.00000000	      0.00000000
      0.17000000	     -4.93852651	      7.84496929	    -89.91504907	      0.19089752	      0.88392096	     -0.87744953	    -14.65163192	      7.38500022	      2.29173206	     -9.31642519	     -0.16260229	     13.81539832	      0.00000000	      0.00000000	     41.57644943	     -6.80670756	      1.54285293	     13.89018883	      0.24242953	     -1.92878476	      0.00000000	      0.00000000	     -3.32610546	      5.63172090	     -2.65665985	      0.00000000	      0.00000000	      0.00000000	      0.00000000	      0.00000000	      0.00000000	      0.00000000	      0.00000000	      0.00000000	      0.00000000	      0.00000000	      0.00000000	      0.00000000	      0.00000000
      0.18000000	     -4.79109735	      7.72264055	    -89.91576597	      0.19181041	      0.88057439	     -0.86278226	    -15.77080578	      7.13486373	      2.62389262	     -9.10811639	     -0.15896662	     14.65468124	      0.00000000	      0.00000000	     41.23739703	     -6.38299952	      2.28769350	     12.65297751	      0.22083612	     -1.75560375	      0.00000000	      0.00000000	     -3.34220133	      5.35464363	     -2.84174520	      0.00000000	      0.00000000	      0.00000000	      0.00000000	      0.00000000	      0.00000000	      0.00000000	      0.00000000	      0.00000000	      0.00000000	      0.00000000	      0.00000000	      0.00000000	      0.00000000
      0.19000000	     -4.71557574	      7.83471024	    -89.91582907	      0.19269411	      0.87706833	     -0.84818842	    -16.51245058	      6.95966787	      2.99426796	     -8.68408316	     -0.15156584	     15.32539815	      0.00000000	      0.00000000	     41.26596663	     -6.02093311	      3.06379311	     12.06595336	      0.21059061	     -1.57842882	      0.00000000	      0.00000000	     -3.09974333	      5.14568652	     -3.00716553	      0.00000000	      0.00000000	      0.00000000	      0.00000000	      0.00000000	      0.00000000	      0.00000000	      0.00000000	      0.00000000	      0.00000000	      0.00000000	      0.00000000	      0.00000000	      0.00000000
      0.20000000	     -4.42546354	      7.76621605	    -89.91578219	      0.19375788	      0.87413004	     -0.83332800	    -17.36476875	      6.56482073	      3.11502162	     -8.06395205	     -0.14074251	     16.26726701	      0.00000000	      0.00000000	     41.11269453	     -5.44606308	      3.57163040	     12.00393789	      0.20950824	     -1.67446879	      0.00000000	      0.00000000	     -3.05857768	      4.69586244	     -3.18178603	      0.00000000	      0.00000000	      0.00000000	      0.00000000	      0.00000000	      0.00000000	      0.00000000	      0.00000000	      0.00000000	      0.00000000	      0.00000000	      0.00000000	      0.00000000	      0.00000000
      0.21000000	     -4.14191070	      7.83241879	    -89.91528257	      0.19486861	      0.87131735	     -0.81843657	    -17.92994991	      6.17636278	      3.16972344	     -7.19959222	     -0.12565659	     16.97281091	      0.00000000	      0.00000000	     41.19289140	     -4.86930561	      3.95594620	     12.49213331	      0.21802886	     -1.98791013	      0.00000000	      0.00000000	     -2.85712602	      4.23478326	     -3.36084925	      0.00000000	      0.00000000	      0.00000000	      0.00000000	      0.00000000	      0.00000000	      0.00000000	      0.00000000	      0.00000000	      0.00000000	      0.00000000	      0.00000000	      0.00000000	      0.00000000
      0.22000000	     -3.82319897	      7.87872934	    -89.91490913	      0.19607172	      0.86890575	     -0.80337520	    -18.38317679	      5.74560410	      3.11395468	     -6.09112600	     -0.10631020	     17.54086314	      0.00000000	      0.00000000	     41.31077055	     -4.25840739	      4.18401363	     13.44852155	      0.23472098	     -2.59022349	      0.00000000	      0.00000000	     -2.66616808	      3.73796346	     -3.51439702	      0.00000000	      0.00000000	      0.00000000	      0.00000000	      0.00000000	      0.00000000	      0.00000000	      0.00000000	      0.00000000	      0.00000000	      0.00000000	      0.00000000	      0.00000000	      0.00000000
      0.23000000	     -3.57277873	      7.97827235	    -89.91418396	      0.19736400	      0.86685754	     -0.78827483	    -18.65417732	      5.36076600	      3.17193699	     -4.84125504	     -0.08449584	     17.25986439	      0.00000000	     -0.00000000	     41.49983113	     -3.68285863	      4.63795594	     14.73978837	      0.25725784	     -3.16541551	      0.00000000	      0.00000000	     -2.42579488	      3.31374568	     -3.60121183	     -0.00000000	      0.00000000	     -0.00000000	      0.00000000	      0.00000000	     -0.00000000	     -0.00000000	     -0.00000000	      0.00000000	     -0.00000000	      0.00000000	      0.00000000	     -0.00000000	     -0.00000000
      0.24000000	     -3.16069303	      7.92488720	    -89.91294474	      0.19867081	      0.86542970	     -0.77273760	    -18.94337354	      4.81564422	      2.93905156	     -3.21600743	     -0.05612992	     18.00663676	      0.00000000	      0.00000000	     41.58479306	     -3.03603240	      4.37536452	     16.38432546	      0.28596043	     -4.35208122	      0.00000000	      0.00000000	     -2.30701726	      2.69254317	     -3.75292734	      0.00000000	      0.00000000	      0.00000000	      0.00000000	      0.00000000	      0.00000000	      0.00000000	      0.00000000	      0.00000000	      0.00000000	      0.00000000	      0.00000000	      0.00000000	      0.00000000
      0.25000000	     -2.86634888	      7.92550063	    -89.91188421	      0.20012036	      0.86453393	     -0.75717625	    -19.06082057	      4.34461502	      3.24442960	     -1.53931424	     -0.02686610	     17.33356305	      0.00000000	      0.00000000	     41.57859947	     -2.42083336	      4.85862154	     17.99264338	      0.31403087	     -4.97627300	      0.00000000	      0.00000000	     -2.13493315	      2.20799851	     -3.81970986	      0.00000000	      0.00000000	      0.00000000	      0.00000000	      0.00000000	      0.00000000	      0.00000000	      0.00000000	      0.00000000	      0.00000000	      0.00000000	      0.00000000	      0.00000000	      0.00000000
      0.26000000	     -2.63510734	      7.72971081	    -89.90989883	      0.20139462	      0.86432030	     -0.74139291	    -19.05898374	      3.95025626	      2.75810247	      0.73673052	      0.01285837	     17.29168721	      0.00000000	      0.00000000	     41.53270860	     -2.01864217	      4.49636094	     20.03075397	      0.34960261	     -5.95132388	      0.00000000	      0.00000000	     -2.18449925	      1.79523899	     -3.88763686	      0.00000000	      0.00000000	      0.00000000	      0.00000000	      0.00000000	      0.00000000	      0.00000000	      0.00000000	      0.00000000	      0.00000000	      0.00000000	      0.00000000	      0.00000000	      0.00000000
      0.27000000	     -2.48862945	      7.56505799	    -89.90739221	      0.20273340	      0.86473418	     -0.72558200	    -18.79598007	      3.59192572	      2.56415133	      3.28785744	      0.05738394	     16.48674517	      0.00000000	      0.00000000	     41.34483453	     -1.65276416	      4.63314937	     21.90343564	      0.38228707	     -6.29088110	      0.00000000	      0.00000000	     -2.18615520	      1.46014999	     -3.90545562	      0.00000000	      0.00000000	      0.00000000	      0.00000000	      0.00000000	      0.00000000	      0.00000000	      0.00000000	      0.00000000	      0.00000000	      0.00000000	      0.00000000	      0.00000000	      0.00000000
      0.28000000	     -2.44155350	      7.26351682	    -89.90458772	      0.20407095	      0.86594726	     -0.70971833	    -18.43073365	      3.30760589	      2.40498222	      6.14172972	      0.10719341	     15.11978370	      0.00000000	      0.00000000	     40.92553966	     -1.41571416	      4.74080693	     23.74512757	      0.41443066	     -6.21693892	      0.00000000	      0.00000000	     -2.35199210	      1.25579172	     -3.88127288	      0.00000000	      0.00000000	      0.00000000	      0.00000000	      0.00000000	      0.00000000	      0.00000000	      0.00000000	      0.00000000	      0.00000000	      0.00000000	      0.00000000	      0.00000000	      0.00000000
